<svg width="64" height="64" viewBox="0 0 64 64" fill="none" xmlns="http://www.w3.org/2000/svg">
<rect width="64" height="64" fill="white"/>
<path d="M9.32102 16.4156H23.2193C23.3368 16.4156 23.4472 16.3709 23.5305 16.2896L24.8657 14.987C25.2537 14.6085 25.7696 14.4 26.3184 14.4H47.393C48.3744 14.4 49.2854 14.8756 49.8304 15.6723L52.3561 19.3685C52.7145 19.8932 52.7474 20.564 52.4426 21.1202C52.1379 21.6763 51.5465 22.0215 50.9002 22.0215H40.0384V23.0923H45.6013C47.076 23.0923 48.4028 23.947 48.9813 25.2704L52.2386 32.7181L55.0917 33.8317C56.6155 34.4263 57.6001 35.8448 57.6001 37.4459V44.3431C57.6001 45.3717 56.742 46.2088 55.6877 46.2088H52.3678C51.9817 48.4921 49.944 50.24 47.4957 50.24C45.0474 50.24 43.0097 48.4921 42.6236 46.2088H24.4757C24.0896 48.4921 22.0519 50.24 19.6036 50.24C17.1553 50.24 15.1177 48.4921 14.7316 46.2088H8.10009C7.16261 46.2088 6.4001 45.4649 6.4001 44.5503V19.2652C6.4001 17.6936 7.71012 16.4156 9.32102 16.4156ZM47.4957 48.6653C49.3293 48.6653 50.8208 47.2103 50.8208 45.4214C50.8208 43.6326 49.3293 42.1776 47.4957 42.1776C45.662 42.1776 44.1706 43.6326 44.1706 45.4214C44.1706 47.2103 45.662 48.6653 47.4957 48.6653ZM40.0384 44.6341H42.6223C42.6288 44.5944 42.6372 44.556 42.6449 44.5169C42.6501 44.4905 42.6546 44.464 42.6604 44.4376C42.6733 44.3758 42.6882 44.3147 42.7037 44.2536C42.7069 44.241 42.7095 44.2284 42.7134 44.2159C42.7327 44.1422 42.754 44.0697 42.7766 43.9979C42.7831 43.9771 42.7908 43.9563 42.7979 43.9349C42.8147 43.8845 42.8322 43.8341 42.8502 43.7844C42.8606 43.7579 42.8709 43.7315 42.8819 43.705C42.8987 43.6616 42.9154 43.6181 42.9342 43.5753C42.9458 43.5469 42.9587 43.5192 42.9716 43.4915C42.9897 43.4506 43.0078 43.4109 43.0271 43.3706C43.0413 43.3422 43.0549 43.3145 43.0698 43.2862C43.0891 43.2477 43.1098 43.2087 43.1304 43.1709C43.1453 43.1432 43.1608 43.1155 43.1763 43.0877C43.1976 43.05 43.2202 43.0122 43.2428 42.975C43.2589 42.9485 43.2751 42.9221 43.2912 42.8956C43.3157 42.8578 43.3403 42.8207 43.3655 42.7829C43.3823 42.7583 43.3984 42.7338 43.4152 42.7098C43.4429 42.6701 43.472 42.6311 43.5017 42.592C43.5165 42.5712 43.5314 42.5505 43.5469 42.5303C43.5869 42.4786 43.6276 42.4289 43.6689 42.3791C43.6747 42.3716 43.6805 42.364 43.687 42.3565C43.7348 42.2998 43.7845 42.2443 43.8349 42.1902C43.8503 42.1732 43.8665 42.1574 43.8826 42.141C43.9181 42.1039 43.9537 42.0667 43.9905 42.0302C44.0111 42.01 44.0324 41.9905 44.0531 41.971C44.086 41.9395 44.1196 41.908 44.1538 41.8771C44.1764 41.857 44.1996 41.8368 44.2229 41.8167C44.2565 41.7877 44.29 41.7593 44.3243 41.731L44.3979 41.6724C44.4321 41.6453 44.4669 41.6189 44.5018 41.5924C44.527 41.5735 44.5528 41.5546 44.5786 41.5364C44.6142 41.5105 44.6503 41.486 44.6871 41.4608C44.7129 41.4438 44.7388 41.4261 44.7646 41.4091C44.8027 41.3839 44.8421 41.36 44.8808 41.3361C44.906 41.3209 44.9312 41.3052 44.957 41.2901C44.9996 41.2649 45.0435 41.2409 45.0874 41.217C45.11 41.2044 45.132 41.1918 45.1539 41.1798C45.2165 41.1471 45.2792 41.1156 45.3424 41.0854C45.3476 41.0835 45.3521 41.081 45.3573 41.0784C45.4257 41.0463 45.4955 41.0154 45.5652 40.9865C45.5878 40.977 45.611 40.9688 45.6336 40.9594C45.6814 40.9405 45.7298 40.9216 45.7789 40.9033C45.8067 40.8933 45.8351 40.8844 45.8628 40.8744C45.9074 40.8592 45.9519 40.8441 45.9971 40.8303C46.0275 40.8208 46.0578 40.812 46.0888 40.8032C46.1327 40.7906 46.1766 40.778 46.2205 40.7666C46.2522 40.7585 46.2838 40.7503 46.3161 40.7427C46.36 40.732 46.4039 40.7226 46.4484 40.7131C46.4807 40.7062 46.513 40.6992 46.5459 40.6929C46.5911 40.6848 46.6363 40.6766 46.6822 40.6696C46.7144 40.664 46.7461 40.6589 46.779 40.6545C46.8261 40.6476 46.8739 40.6419 46.9223 40.6363C46.9527 40.6331 46.9837 40.6287 47.0147 40.6262C47.0676 40.6211 47.1212 40.6174 47.1748 40.6142C47.2013 40.6123 47.2271 40.6098 47.2536 40.6092C47.3343 40.6048 47.4143 40.6029 47.4957 40.6029C47.577 40.6029 47.6571 40.6048 47.7378 40.6092C47.7643 40.6098 47.7901 40.6123 47.8166 40.6142C47.8702 40.6174 47.9238 40.6211 47.9767 40.6262C48.0077 40.6287 48.0387 40.6331 48.069 40.6363C48.1174 40.6419 48.1652 40.6476 48.2124 40.6545C48.2453 40.6589 48.2769 40.664 48.3092 40.6696C48.355 40.6766 48.4002 40.6848 48.4454 40.6929C48.4784 40.6992 48.5106 40.7062 48.5429 40.7131C48.5875 40.7226 48.6314 40.732 48.6753 40.7427C48.7076 40.7503 48.7392 40.7585 48.7708 40.7666C48.8147 40.778 48.8586 40.7906 48.9026 40.8032C48.9335 40.812 48.9639 40.8208 48.9942 40.8303C49.0394 40.8441 49.084 40.8592 49.1285 40.8744C49.1563 40.8844 49.1847 40.8933 49.2125 40.9033C49.2615 40.9216 49.31 40.9405 49.3577 40.9594C49.3803 40.9688 49.4036 40.977 49.4262 40.9865C49.4959 41.0154 49.5656 41.0463 49.6341 41.0784C49.6392 41.081 49.6438 41.0835 49.6489 41.0854C49.7122 41.1156 49.7748 41.1471 49.8375 41.1798C49.8594 41.1918 49.8814 41.2044 49.904 41.217C49.9479 41.2409 49.9918 41.2649 50.0344 41.2901C50.0602 41.3052 50.0854 41.3209 50.1106 41.3361C50.1493 41.36 50.1887 41.3839 50.2268 41.4091C50.2526 41.4261 50.2784 41.4438 50.3043 41.4608C50.3411 41.486 50.3772 41.5105 50.4127 41.5364C50.4386 41.5546 50.4644 41.5735 50.4896 41.5924C50.5244 41.6189 50.5593 41.6453 50.5935 41.6724L50.6671 41.731C50.7013 41.7593 50.7349 41.7877 50.7685 41.8167C50.7917 41.8368 50.815 41.857 50.8376 41.8771C50.8718 41.908 50.9054 41.9395 50.9383 41.971C50.9589 41.9905 50.9803 42.01 51.0009 42.0302C51.0377 42.0667 51.0732 42.1039 51.1087 42.141C51.1249 42.1574 51.141 42.1732 51.1565 42.1902C51.2069 42.2443 51.2566 42.2998 51.3044 42.3565C51.3108 42.364 51.3166 42.3716 51.3224 42.3791C51.3638 42.4289 51.4044 42.4786 51.4445 42.5303C51.46 42.5505 51.4748 42.5712 51.4897 42.592C51.5194 42.6311 51.5484 42.6701 51.5762 42.7098C51.593 42.7338 51.6091 42.7583 51.6259 42.7829C51.6511 42.8207 51.6756 42.8578 51.7002 42.8956C51.7163 42.9221 51.7324 42.9485 51.7486 42.975C51.7712 43.0122 51.7938 43.05 51.8151 43.0877C51.8306 43.1155 51.8461 43.1432 51.8609 43.1709C51.8816 43.2087 51.9022 43.2477 51.9216 43.2862C51.9365 43.3145 51.95 43.3422 51.9642 43.3706C51.9836 43.4109 52.0017 43.4506 52.0198 43.4915C52.0327 43.5192 52.0456 43.5469 52.0572 43.5753C52.0759 43.6181 52.0927 43.6616 52.1095 43.705C52.1205 43.7315 52.1308 43.7579 52.1411 43.7844C52.1592 43.8341 52.1766 43.8845 52.1934 43.9349C52.2005 43.9563 52.2083 43.9771 52.2147 43.9979C52.2373 44.0697 52.2586 44.1422 52.278 44.2159C52.2819 44.2284 52.2845 44.241 52.2877 44.2536C52.3032 44.3147 52.318 44.3758 52.331 44.4376C52.3368 44.464 52.3413 44.4905 52.3464 44.5169C52.3542 44.556 52.3626 44.5944 52.369 44.6341H55.6877C55.8523 44.6341 55.986 44.5037 55.986 44.3431V41.0438H54.727V39.4691H55.986V37.4459C55.986 36.4923 55.3997 35.6476 54.4926 35.2936L51.4722 34.1151H40.0384V44.6341ZM40.0384 32.5405H50.4063L47.497 25.8883C47.1722 25.1463 46.4284 24.667 45.6013 24.667H40.0384V32.5405ZM19.6036 48.6653C21.4373 48.6653 22.9287 47.2103 22.9287 45.4214C22.9287 43.6326 21.4373 42.1776 19.6036 42.1776C19.5462 42.1776 19.4893 42.1788 19.4325 42.182C17.9049 42.2576 16.6459 43.3447 16.3463 44.7683C16.3354 44.8212 16.325 44.8747 16.3166 44.9282C16.2998 45.0353 16.2889 45.1443 16.2831 45.2545C16.2798 45.3099 16.2785 45.3654 16.2785 45.4214C16.2785 47.2103 17.77 48.6653 19.6036 48.6653ZM8.01422 39.4691H9.27324V41.0438H8.01422V44.5503C8.01422 44.5963 8.05296 44.6341 8.10009 44.6341H14.7303C14.7367 44.595 14.7451 44.5566 14.7529 44.5182C14.758 44.4911 14.7625 44.464 14.7684 44.4369C14.7813 44.3765 14.7955 44.3166 14.811 44.2574C14.8148 44.2436 14.8174 44.2291 14.8213 44.2152C14.8407 44.1422 14.862 44.0703 14.8846 43.9985C14.8917 43.9765 14.8994 43.9545 14.9065 43.933C14.9233 43.8833 14.9401 43.8335 14.9582 43.785C14.9685 43.7573 14.9795 43.7308 14.9898 43.7038C15.0066 43.6609 15.024 43.6181 15.0415 43.5759C15.0537 43.5469 15.0666 43.5186 15.0796 43.4902C15.0976 43.4506 15.1157 43.4109 15.1351 43.3712C15.1486 43.3422 15.1635 43.3139 15.1777 43.2855C15.1971 43.2471 15.2171 43.2093 15.2377 43.1709C15.2532 43.1432 15.2687 43.1155 15.2842 43.0877C15.3062 43.05 15.3281 43.0128 15.3507 42.9756C15.3669 42.9485 15.383 42.9221 15.3998 42.8956C15.4237 42.8578 15.4482 42.8207 15.4734 42.7841C15.4896 42.7589 15.5063 42.7338 15.5231 42.7098C15.5509 42.6701 15.5799 42.6317 15.6083 42.5933C15.6238 42.5719 15.6393 42.5505 15.6555 42.5297C15.6942 42.4799 15.7336 42.4308 15.7743 42.3823C15.7814 42.3735 15.7878 42.3646 15.7949 42.3565C15.8434 42.2998 15.8924 42.2443 15.9428 42.1902C15.9589 42.1732 15.9751 42.1568 15.9912 42.1398C16.0267 42.1026 16.0622 42.0661 16.0984 42.0302C16.1191 42.01 16.1404 41.9905 16.1617 41.9703C16.1946 41.9388 16.2275 41.908 16.2617 41.8771C16.2843 41.857 16.3082 41.8368 16.3315 41.816C16.3644 41.7877 16.398 41.7593 16.4322 41.7316C16.4567 41.7115 16.4813 41.6913 16.5065 41.6718C16.54 41.6453 16.5749 41.6189 16.6098 41.5924C16.6349 41.5735 16.6608 41.5546 16.6866 41.5364C16.7221 41.5105 16.7583 41.486 16.7944 41.4614C16.8209 41.4438 16.8467 41.4261 16.8725 41.4091C16.9106 41.3839 16.9494 41.36 16.9881 41.3367C17.0139 41.3209 17.0391 41.3052 17.0649 41.2901C17.1075 41.2649 17.1508 41.2409 17.1947 41.217C17.2173 41.2044 17.2393 41.1918 17.2625 41.1798C17.3238 41.1471 17.3858 41.1162 17.4491 41.0866C17.4543 41.0841 17.4594 41.081 17.4652 41.0784C17.5337 41.0463 17.6034 41.0154 17.6731 40.9865C17.6957 40.977 17.719 40.9688 17.7416 40.9594C17.79 40.9405 17.8378 40.9216 17.8868 40.9033C17.9146 40.8933 17.943 40.8844 17.9714 40.8744C18.0153 40.8592 18.0599 40.8441 18.1051 40.8303C18.1354 40.8208 18.1664 40.812 18.1968 40.8032C18.2407 40.7906 18.2846 40.778 18.3285 40.7666C18.3601 40.7585 18.3917 40.7503 18.424 40.7427C18.4679 40.732 18.5118 40.7226 18.5564 40.7131C18.5887 40.7062 18.6209 40.6992 18.6539 40.6929C18.6991 40.6848 18.7443 40.6766 18.7901 40.6696C18.8224 40.664 18.854 40.6589 18.887 40.6545C18.9341 40.6476 18.9819 40.6419 19.0303 40.6363C19.0606 40.6331 19.0916 40.6287 19.1226 40.6262C19.1756 40.6211 19.2292 40.6174 19.2827 40.6142C19.3092 40.6123 19.335 40.6098 19.3615 40.6092C19.4422 40.6048 19.5223 40.6029 19.6036 40.6029C19.685 40.6029 19.765 40.6048 19.8457 40.6092C19.8722 40.6098 19.898 40.6123 19.9245 40.6142C19.9781 40.6174 20.0317 40.6211 20.0846 40.6262C20.1156 40.6287 20.1466 40.6331 20.177 40.6363C20.2254 40.6419 20.2732 40.6476 20.3203 40.6545C20.3532 40.6589 20.3849 40.664 20.4171 40.6696C20.463 40.6766 20.5082 40.6848 20.5534 40.6929C20.5863 40.6992 20.6186 40.7062 20.6509 40.7131C20.6954 40.7226 20.7393 40.732 20.7832 40.7427C20.8155 40.7503 20.8471 40.7585 20.8788 40.7666C20.9227 40.778 20.9666 40.7906 21.0105 40.8032C21.0408 40.812 21.0718 40.8208 21.1022 40.8303C21.1474 40.8441 21.1919 40.8592 21.2358 40.8744C21.2642 40.8844 21.2926 40.8933 21.3204 40.9033C21.3695 40.9216 21.4173 40.9405 21.4657 40.9594C21.4883 40.9688 21.5115 40.977 21.5341 40.9865C21.6039 41.0154 21.6736 41.0463 21.742 41.0784C21.7478 41.081 21.753 41.0835 21.7582 41.0866C21.8214 41.1162 21.8834 41.1471 21.9448 41.1798C21.968 41.1918 21.9899 41.2044 22.0125 41.217C22.0558 41.2409 22.0997 41.2649 22.1423 41.2901C22.1681 41.3052 22.1933 41.3209 22.2192 41.3367C22.2579 41.36 22.2966 41.3839 22.3347 41.4091C22.3606 41.4261 22.3864 41.4438 22.4128 41.4614C22.449 41.486 22.4852 41.5105 22.5207 41.5364C22.5465 41.5546 22.5723 41.5735 22.5975 41.5924C22.6324 41.6189 22.6672 41.6453 22.7008 41.6718C22.726 41.6913 22.7505 41.7115 22.7751 41.7316C22.8093 41.7593 22.8429 41.7877 22.8758 41.8167C22.899 41.8368 22.9229 41.857 22.9455 41.8771C22.9797 41.908 23.0127 41.9395 23.0462 41.971C23.0669 41.9905 23.0882 42.01 23.1089 42.0302C23.145 42.0661 23.1812 42.1032 23.2167 42.1404C23.2322 42.1568 23.249 42.1732 23.2645 42.1902C23.3148 42.2443 23.3639 42.2998 23.4123 42.3565C23.4188 42.3646 23.4252 42.3728 23.4317 42.3804C23.4724 42.4295 23.513 42.4793 23.5518 42.5303C23.5679 42.5505 23.5828 42.5712 23.5983 42.592C23.6273 42.6311 23.6564 42.6701 23.6841 42.7098C23.7009 42.7338 23.7171 42.7589 23.7338 42.7835C23.759 42.8207 23.7836 42.8578 23.8075 42.8956C23.8242 42.9221 23.8404 42.9485 23.8565 42.975C23.8791 43.0122 23.9017 43.05 23.923 43.0877C23.9385 43.1155 23.954 43.1432 23.9689 43.1709C23.9902 43.2087 24.0102 43.2477 24.0302 43.2862C24.0444 43.3145 24.058 43.3422 24.0722 43.3706C24.0915 43.4109 24.1096 43.4512 24.1277 43.4915C24.1406 43.5192 24.1535 43.5469 24.1651 43.5753C24.1839 43.6181 24.2007 43.6616 24.2181 43.705C24.2284 43.7315 24.2387 43.7579 24.2491 43.7844C24.2678 43.8348 24.2846 43.8852 24.3014 43.9362C24.3085 43.957 24.3162 43.9771 24.3227 43.9979C24.3453 44.0697 24.3666 44.1428 24.3866 44.2159C24.3892 44.2272 24.3918 44.2392 24.3943 44.2505C24.4105 44.3129 24.4253 44.3752 24.4389 44.4382C24.4447 44.4634 24.4492 44.4892 24.4537 44.515C24.4615 44.5547 24.4699 44.5938 24.477 44.6341H38.4243V21.2342C38.4243 20.7995 38.7859 20.4468 39.2314 20.4468H50.9002C50.9202 20.4468 50.9815 20.4468 51.0196 20.3769C51.0577 20.3076 51.0242 20.2579 51.0125 20.2421L48.4874 16.546C48.2427 16.1882 47.834 15.9747 47.393 15.9747H26.3184C26.2009 15.9747 26.0905 16.0194 26.0072 16.1007L24.672 17.4032C24.2839 17.7818 23.7681 17.9903 23.2193 17.9903H9.32102C8.60047 17.9903 8.01422 18.5622 8.01422 19.2652V39.4691Z" fill="#101828"/>
<path d="M28.9297 22.4615H34.0348C35.0659 22.4615 35.9053 23.2798 35.9053 24.2863V41.1374C35.9053 41.572 35.5437 41.9247 35.0982 41.9247H27.8669C27.4214 41.9247 27.0599 41.572 27.0599 41.1374V24.2863C27.0592 23.2798 27.8979 22.4615 28.9297 22.4615ZM28.6734 40.35H34.2905V31.0909H28.6734V40.35ZM28.6734 29.5162H34.2905V24.2863C34.2905 24.1484 34.1756 24.0362 34.0342 24.0362H28.929C28.7876 24.0362 28.6727 24.1484 28.6727 24.2863V29.5162H28.6734ZM12.5999 22.4615H22.4719C23.6128 22.4615 24.5412 23.3673 24.5412 24.4803V29.0727C24.5412 30.1857 23.6128 31.0915 22.4719 31.0915H12.5993C11.4584 31.0915 10.53 30.1857 10.53 29.0727V24.4803C10.5306 23.3673 11.459 22.4615 12.5999 22.4615ZM12.1447 29.0721C12.1447 29.3165 12.3487 29.5162 12.5999 29.5162H22.4719C22.723 29.5162 22.9271 29.3171 22.9271 29.0721V24.4797C22.9271 24.2353 22.723 24.0356 22.4719 24.0356H12.5993C12.3481 24.0356 12.1441 24.2347 12.1441 24.4797V29.0721H12.1447Z" fill="#101828"/>
</svg>
