<svg aria-hidden="true" style="position: absolute; width: 0; height: 0; overflow: hidden;" version="1.1" xmlns="http://www.w3.org/2000/svg" xmlns:xlink="http://www.w3.org/1999/xlink">
<defs>
<symbol id="icon-air" viewBox="0 0 32 32">
<path d="M15.504 3.2c-1.501 0-2.956 0.513-4.117 1.45s-1.956 2.241-2.251 3.69l-0.116 0.575c-0.031 0.129-0.035 0.262-0.012 0.392s0.072 0.255 0.144 0.366c0.073 0.111 0.167 0.207 0.278 0.281s0.236 0.126 0.367 0.152c0.132 0.026 0.267 0.025 0.399-0.001s0.256-0.079 0.366-0.155c0.11-0.075 0.204-0.171 0.276-0.283s0.12-0.236 0.142-0.367l0.118-0.573c0.222-1.075 0.84-2.030 1.737-2.681s2.006-0.951 3.114-0.843c1.108 0.108 2.136 0.618 2.884 1.43s1.164 1.868 1.167 2.965c0 1.175-0.474 2.302-1.318 3.134s-1.988 1.298-3.182 1.299h-14.5c-0.265 0-0.52 0.104-0.707 0.288s-0.293 0.435-0.293 0.696c0 0.261 0.105 0.512 0.293 0.696s0.442 0.288 0.707 0.288h14.5c1.696-0.041 3.309-0.733 4.494-1.928s1.849-2.799 1.849-4.47-0.662-3.275-1.846-4.471c-1.184-1.196-2.796-1.889-4.492-1.931zM27 12.062c-1.326 0-2.598 0.519-3.536 1.442s-1.464 2.175-1.464 3.481c0 0.261 0.105 0.512 0.293 0.696s0.442 0.288 0.707 0.288 0.52-0.104 0.707-0.288c0.188-0.185 0.293-0.435 0.293-0.696 0-0.584 0.176-1.155 0.506-1.641s0.798-0.864 1.346-1.088c0.548-0.224 1.151-0.282 1.733-0.168s1.116 0.395 1.536 0.808c0.42 0.413 0.705 0.939 0.821 1.512s0.056 1.167-0.171 1.707c-0.227 0.54-0.612 1.001-1.105 1.326s-1.073 0.498-1.667 0.498h-26c-0.265 0-0.52 0.104-0.707 0.288s-0.293 0.435-0.293 0.696c0 0.261 0.105 0.512 0.293 0.696s0.442 0.288 0.707 0.288h19.5c0.663 0.001 1.298 0.262 1.766 0.724s0.73 1.089 0.729 1.742c-0.001 0.653-0.266 1.279-0.736 1.739s-1.106 0.719-1.769 0.717c-0.597 0-1.175-0.207-1.632-0.587s-0.762-0.905-0.862-1.485l-0.010-0.059c-0.018-0.131-0.062-0.256-0.131-0.37s-0.159-0.212-0.267-0.29-0.23-0.134-0.36-0.165c-0.13-0.031-0.265-0.036-0.397-0.014s-0.258 0.069-0.372 0.14c-0.113 0.071-0.211 0.163-0.287 0.271s-0.129 0.231-0.157 0.36c-0.027 0.129-0.028 0.262-0.002 0.392l0.010 0.059c0.178 1.040 0.724 1.984 1.542 2.664s1.854 1.054 2.924 1.054c1.195 0 2.341-0.466 3.186-1.297s1.322-1.958 1.324-3.134c0-0.912-0.28-1.759-0.758-2.462h2.758c1.326 0 2.598-0.519 3.536-1.442s1.464-2.176 1.464-3.481c0-1.306-0.527-2.558-1.464-3.481s-2.209-1.442-3.536-1.442z"></path>
</symbol>
<symbol id="icon-cd" viewBox="0 0 32 32">
<path d="M16 5.2c-5.965 0-10.8 4.835-10.8 10.8s4.835 10.8 10.8 10.8c5.965 0 10.8-4.835 10.8-10.8s-4.835-10.8-10.8-10.8zM2.8 16c0-7.29 5.91-13.2 13.2-13.2s13.2 5.91 13.2 13.2c0 7.29-5.91 13.2-13.2 13.2s-13.2-5.91-13.2-13.2z"></path>
<path d="M16 9.867c-3.387 0-6.133 2.746-6.133 6.133 0 0.663-0.537 1.2-1.2 1.2s-1.2-0.537-1.2-1.2c0-4.713 3.821-8.533 8.533-8.533 0.663 0 1.2 0.537 1.2 1.2s-0.537 1.2-1.2 1.2z"></path>
<path d="M16 13.867c-1.178 0-2.133 0.955-2.133 2.133s0.955 2.133 2.133 2.133c1.178 0 2.133-0.955 2.133-2.133s-0.955-2.133-2.133-2.133zM11.467 16c0-2.504 2.030-4.533 4.533-4.533s4.533 2.030 4.533 4.533-2.030 4.533-4.533 4.533c-2.504 0-4.533-2.030-4.533-4.533z"></path>
</symbol>
<symbol id="icon-hob" viewBox="0 0 32 32">
<path fill="none" stroke="#101828" style="stroke: var(--color1, #101828)" stroke-linejoin="miter" stroke-linecap="butt" stroke-miterlimit="4" stroke-width="2.4" d="M12 6.667h16c0.354 0 0.693 0.14 0.943 0.391s0.391 0.589 0.391 0.943v17.333c0 0.354-0.14 0.693-0.391 0.943s-0.589 0.391-0.943 0.391h-16M12 6.667h-8c-0.354 0-0.693 0.14-0.943 0.391s-0.391 0.589-0.391 0.943v17.333c0 0.354 0.14 0.693 0.391 0.943s0.589 0.391 0.943 0.391h8M12 6.667v20"></path>
<path fill="none" stroke="#101828" style="stroke: var(--color1, #101828)" stroke-linejoin="round" stroke-linecap="round" stroke-miterlimit="4" stroke-width="2.4" d="M7.334 11.333v2.667M24.667 10.667l-8 11.333"></path>
<path d="M8.667 18c0-0.736-0.597-1.333-1.333-1.333s-1.333 0.597-1.333 1.333c0 0.736 0.597 1.333 1.333 1.333s1.333-0.597 1.333-1.333z"></path>
<path d="M8.667 22c0-0.736-0.597-1.333-1.333-1.333s-1.333 0.597-1.333 1.333c0 0.736 0.597 1.333 1.333 1.333s1.333-0.597 1.333-1.333z"></path>
</symbol>
<symbol id="icon-water" viewBox="0 0 32 32">
<path d="M16 4.942c-1.061 1.268-2.882 3.567-4.504 6.21-1.845 3.006-3.296 6.242-3.296 8.848 0 2.506 0.784 4.429 2.077 5.723s3.216 2.077 5.723 2.077c2.506 0 4.429-0.784 5.723-2.077s2.077-3.216 2.077-5.723c0-2.607-1.451-5.842-3.296-8.848-1.622-2.643-3.443-4.942-4.504-6.21zM15.185 2.474c0.256-0.118 0.534-0.179 0.815-0.179s0.56 0.061 0.815 0.179 0.483 0.289 0.666 0.503l0.001 0.001c1.008 1.18 3.161 3.812 5.067 6.918 1.876 3.055 3.651 6.783 3.651 10.104 0 3.017-0.955 5.594-2.78 7.42s-4.403 2.78-7.42 2.78c-3.017 0-5.594-0.955-7.42-2.78s-2.78-4.403-2.78-7.42c0-3.32 1.775-7.049 3.651-10.104 1.907-3.106 4.059-5.739 5.068-6.919l0.001-0.001c0.183-0.214 0.41-0.385 0.666-0.503z"></path>
<path d="M21.5 19.3c0.663 0 1.2 0.537 1.2 1.2 0 1.512-0.6 2.962-1.669 4.031s-2.519 1.669-4.031 1.669c-0.663 0-1.2-0.537-1.2-1.2s0.537-1.2 1.2-1.2c0.875 0 1.715-0.348 2.333-0.967s0.967-1.458 0.967-2.333c0-0.663 0.537-1.2 1.2-1.2z"></path>
</symbol>
<symbol id="icon-map-pin" viewBox="0 0 32 32">
<path d="M16 2.633c-2.838 0-5.559 1.127-7.566 3.134s-3.134 4.728-3.134 7.566c0 4.144 2.695 8.16 5.644 11.273 1.448 1.528 2.9 2.779 3.991 3.648 0.416 0.331 0.778 0.606 1.065 0.818 0.288-0.212 0.649-0.487 1.065-0.818 1.092-0.869 2.543-2.12 3.991-3.648 2.948-3.112 5.644-7.129 5.644-11.273 0-2.838-1.127-5.559-3.134-7.566s-4.728-3.134-7.566-3.134zM16 30.667c-0.721 1.082-0.721 1.082-0.722 1.081l-0.004-0.002-0.009-0.006-0.030-0.021c-0.026-0.018-0.063-0.043-0.11-0.076-0.095-0.065-0.23-0.161-0.402-0.285-0.343-0.247-0.828-0.609-1.408-1.071-1.158-0.922-2.707-2.255-4.259-3.894-3.052-3.221-6.356-7.871-6.356-13.061 0-3.527 1.401-6.91 3.895-9.405s5.877-3.895 9.405-3.895c3.527 0 6.91 1.401 9.405 3.895s3.895 5.877 3.895 9.405c0 5.189-3.305 9.839-6.356 13.061-1.553 1.639-3.101 2.971-4.259 3.894-0.58 0.462-1.065 0.823-1.408 1.071-0.171 0.124-0.307 0.219-0.402 0.285-0.047 0.033-0.084 0.058-0.11 0.076l-0.039 0.027-0.003 0.002c-0 0-0.002 0.001-0.723-1.081zM16 30.667l0.721 1.082c-0.437 0.291-1.006 0.291-1.443-0.001l0.722-1.081z"></path>
<path d="M16 10.633c-1.491 0-2.7 1.209-2.7 2.7s1.209 2.7 2.7 2.7c1.491 0 2.7-1.209 2.7-2.7s-1.209-2.7-2.7-2.7zM10.7 13.333c0-2.927 2.373-5.3 5.3-5.3s5.3 2.373 5.3 5.3c0 2.927-2.373 5.3-5.3 5.3s-5.3-2.373-5.3-5.3z"></path>
</symbol>
<symbol id="icon-gas" viewBox="0 0 32 32">
<path d="M25.072 13.991c-0.368-0.453-0.816-0.846-1.232-1.239-1.072-0.907-2.288-1.556-3.311-2.508-2.384-2.206-2.912-5.848-1.392-8.644-1.52 0.348-2.848 1.133-3.983 1.995-4.143 3.143-5.775 8.689-3.823 13.449 0.064 0.151 0.128 0.302 0.128 0.499 0 0.332-0.24 0.635-0.56 0.756-0.368 0.151-0.752 0.060-1.056-0.181-0.091-0.071-0.167-0.159-0.224-0.257-1.808-2.161-2.096-5.259-0.88-7.737-2.672 2.055-4.127 5.531-3.919 8.81 0.096 0.756 0.192 1.511 0.464 2.267 0.224 0.907 0.656 1.813 1.136 2.614 1.728 2.614 4.719 4.488 7.935 4.866 3.423 0.408 7.087-0.181 9.71-2.418 2.927-2.509 3.951-6.528 2.448-9.974l-0.208-0.393c-0.336-0.695-1.232-1.904-1.232-1.904zM20.017 23.512c-0.448 0.363-1.184 0.756-1.76 0.907-1.792 0.604-3.583-0.242-4.639-1.239 1.904-0.423 3.039-1.753 3.375-3.098 0.272-1.209-0.24-2.206-0.448-3.37-0.192-1.118-0.16-2.070 0.272-3.113 0.304 0.574 0.624 1.148 1.008 1.602 1.232 1.511 3.167 2.176 3.583 4.231 0.064 0.212 0.096 0.423 0.096 0.65 0.048 1.239-0.528 2.599-1.488 3.43z"></path>
</symbol>
<symbol id="icon-toilet-paper" viewBox="0 0 32 32">
<path d="M24 4c1.939 0 3.269 1.647 4.040 3.313 0.761 1.653 1.224 3.811 1.287 6.145l0.007 0.541v12.667c0 0.18-0.036 0.357-0.106 0.523s-0.173 0.315-0.303 0.439c-0.13 0.125-0.283 0.222-0.451 0.285s-0.347 0.093-0.527 0.086l-0.165-0.019-3.781-0.629-3.781 0.629c-0.16 0.027-0.324 0.024-0.483-0.008l-0.157-0.041-3.579-1.193-3.579 1.193c-0.188 0.063-0.387 0.083-0.583 0.059s-0.385-0.092-0.552-0.197-0.309-0.248-0.414-0.415c-0.105-0.167-0.172-0.356-0.196-0.553l-0.009-0.159v-3.903c-0.708 0.733-1.595 1.236-2.667 1.236-1.939 0-3.269-1.647-4.040-3.313-0.819-1.78-1.293-4.145-1.293-6.687s0.473-4.907 1.293-6.687c0.735-1.592 1.981-3.164 3.78-3.303l0.26-0.011h16zM24 6.667h-12.291c0.12 0.213 0.229 0.429 0.329 0.647 0.821 1.78 1.295 4.145 1.295 6.687v10.817l2.245-0.749c0.274-0.091 0.569-0.091 0.843 0l3.687 1.229 3.673-0.613c0.144-0.024 0.293-0.024 0.437 0l2.448 0.409v-11.093c0-2.245-0.423-4.213-1.049-5.569-0.677-1.471-1.347-1.764-1.617-1.764zM8 6.667c-0.271 0-0.94 0.293-1.617 1.764-0.627 1.356-1.049 3.324-1.049 5.569s0.423 4.213 1.049 5.569c0.677 1.471 1.347 1.764 1.617 1.764s0.94-0.293 1.617-1.764c0.627-1.356 1.049-3.324 1.049-5.569s-0.423-4.213-1.049-5.569c-0.677-1.471-1.347-1.764-1.617-1.764zM8 11.333c0.736 0 1.333 1.193 1.333 2.667s-0.597 2.667-1.333 2.667c-0.736 0-1.333-1.193-1.333-2.667s0.597-2.667 1.333-2.667z"></path>
</symbol>
<symbol id="icon-radio" viewBox="0 0 32 32">
<path d="M7.62 9.226c-1.337 0.18-2.1 0.516-2.655 1.072s-0.893 1.319-1.072 2.656c-0.184 1.367-0.186 3.17-0.186 5.713s0.002 4.347 0.186 5.713c0.18 1.337 0.516 2.1 1.072 2.655s1.319 0.892 2.656 1.072c1.367 0.184 3.17 0.186 5.713 0.186h5.333c2.544 0 4.347-0.002 5.713-0.186 1.337-0.18 2.1-0.516 2.655-1.072s0.892-1.319 1.072-2.656c0.184-1.367 0.186-3.17 0.186-5.713s-0.002-4.346-0.186-5.713c-0.18-1.337-0.516-2.1-1.072-2.655s-1.319-0.893-2.656-1.072c-1.367-0.184-3.17-0.186-5.713-0.186h-5.333c-2.543 0-4.346 0.002-5.713 0.186zM13.255 6.96h5.489c2.448-0 4.391-0 5.913 0.205 1.568 0.211 2.843 0.656 3.849 1.663s1.452 2.281 1.662 3.848c0.205 1.522 0.205 3.465 0.205 5.913v0.156c0 2.448 0 4.391-0.205 5.913-0.211 1.568-0.656 2.843-1.663 3.849s-2.281 1.452-3.849 1.663c-1.522 0.205-3.465 0.205-5.913 0.205h-5.489c-2.448 0-4.391 0-5.913-0.205-1.567-0.211-2.842-0.656-3.848-1.662s-1.452-2.281-1.663-3.849c-0.205-1.522-0.205-3.465-0.205-5.913v-0.156c-0-2.448-0-4.391 0.205-5.913 0.211-1.567 0.656-2.843 1.663-3.849s2.281-1.452 3.849-1.663c1.522-0.205 3.465-0.205 5.913-0.205z"></path>
<path d="M9.333 13.040c-0.431 0-0.845 0.171-1.15 0.476s-0.476 0.719-0.476 1.15c0 0.431 0.171 0.845 0.476 1.15s0.719 0.476 1.15 0.476h13.333c0.432 0 0.845-0.171 1.15-0.476s0.476-0.719 0.476-1.15-0.171-0.845-0.476-1.15c-0.305-0.305-0.719-0.476-1.15-0.476h-13.333zM6.712 12.046c0.695-0.695 1.638-1.086 2.621-1.086h13.333c0.983 0 1.926 0.39 2.621 1.086s1.086 1.638 1.086 2.621-0.391 1.926-1.086 2.621c-0.695 0.695-1.638 1.086-2.621 1.086h-13.333c-0.983 0-1.926-0.391-2.621-1.086s-1.086-1.638-1.086-2.621 0.391-1.926 1.086-2.621zM10 21.707c-0.255 0-0.499 0.101-0.679 0.281s-0.281 0.424-0.281 0.679 0.101 0.499 0.281 0.679c0.18 0.18 0.424 0.281 0.679 0.281s0.499-0.101 0.679-0.281c0.18-0.18 0.281-0.424 0.281-0.679s-0.101-0.499-0.281-0.679c-0.18-0.18-0.424-0.281-0.679-0.281zM7.85 20.517c0.57-0.57 1.343-0.89 2.15-0.89s1.579 0.32 2.15 0.89c0.57 0.57 0.89 1.343 0.89 2.15s-0.32 1.58-0.89 2.15c-0.57 0.57-1.343 0.89-2.15 0.89s-1.579-0.32-2.15-0.89c-0.57-0.57-0.89-1.343-0.89-2.15s0.32-1.58 0.89-2.15z"></path>
<path d="M20.941 2.224c0.245 0.52 0.022 1.139-0.498 1.384l-11.333 5.333c-0.52 0.245-1.139 0.022-1.384-0.498s-0.022-1.139 0.498-1.384l11.333-5.333c0.52-0.245 1.139-0.022 1.384 0.498zM20 14.293c0.574 0 1.040 0.466 1.040 1.040v2c0 0.574-0.466 1.040-1.040 1.040s-1.040-0.466-1.040-1.040v-2c0-0.574 0.466-1.040 1.040-1.040zM16.293 22.667c0-0.574 0.466-1.040 1.040-1.040h6.667c0.574 0 1.040 0.466 1.040 1.040s-0.466 1.040-1.040 1.040h-6.667c-0.574 0-1.040-0.466-1.040-1.040z"></path>
</symbol>
<symbol id="icon-streamline_hotel-air-conditioner" viewBox="0 0 32 32">
<path stroke-linejoin="round" stroke-linecap="round" stroke-miterlimit="4" stroke-width="2.4" d="M28.571 1.143h-25.143c-0.606 0-1.188 0.241-1.616 0.669s-0.669 1.010-0.669 1.616v11.429c0 0.606 0.241 1.188 0.669 1.616s1.010 0.669 1.616 0.669h25.143c0.606 0 1.188-0.241 1.616-0.669s0.67-1.010 0.67-1.616v-11.429c0-0.606-0.241-1.188-0.67-1.616s-1.010-0.669-1.616-0.669z"></path>
<path stroke-linejoin="round" stroke-linecap="round" stroke-miterlimit="4" stroke-width="2.4" d="M25.143 17.143v-4.571c0-0.606-0.241-1.188-0.67-1.616s-1.010-0.669-1.616-0.669h-13.714c-0.606 0-1.188 0.241-1.616 0.669s-0.669 1.010-0.669 1.616v4.571M5.714 28.571h0.229c0.849 0 1.663-0.337 2.263-0.937s0.937-1.414 0.937-2.263v-2.514M26.286 28.571h-0.229c-0.849 0-1.663-0.337-2.263-0.937s-0.937-1.414-0.937-2.263v-2.514M16 30.857v-8"></path>
</symbol>
<symbol id="icon-microwave" viewBox="0 0 32 32">
<path d="M0.686 5.257c0.424-0.424 1-0.663 1.6-0.663h27.429c0.6 0 1.176 0.238 1.6 0.663s0.663 1 0.663 1.6v18.286c0 0.6-0.238 1.176-0.663 1.6s-1 0.663-1.6 0.663h-27.429c-0.6 0-1.176-0.238-1.6-0.663s-0.663-1-0.663-1.6v-18.286c0-0.6 0.238-1.176 0.663-1.6zM2.286 6.834c-0.006 0-0.012 0.002-0.016 0.007s-0.007 0.010-0.007 0.016v18.286c0 0.006 0.002 0.012 0.007 0.016s0.010 0.007 0.016 0.007h27.429c0.006 0 0.012-0.002 0.016-0.007s0.007-0.010 0.007-0.016v-18.286c0-0.006-0.002-0.012-0.007-0.016s-0.010-0.007-0.016-0.007h-27.429z"></path>
<path d="M5.257 9.828c0.424-0.424 1-0.663 1.6-0.663h12.571c0.6 0 1.176 0.238 1.6 0.663s0.663 1 0.663 1.6v9.143c0 0.6-0.238 1.176-0.663 1.6s-1 0.663-1.6 0.663h-12.571c-0.6 0-1.176-0.238-1.6-0.663s-0.663-1-0.663-1.6v-9.143c0-0.6 0.238-1.176 0.663-1.6zM6.857 11.406c-0.006 0-0.012 0.002-0.016 0.007s-0.007 0.010-0.007 0.016v9.143c0 0.006 0.002 0.012 0.007 0.016s0.010 0.007 0.016 0.007h12.571c0.006 0 0.012-0.002 0.016-0.007s0.007-0.010 0.007-0.016v-9.143c0-0.006-0.002-0.012-0.007-0.016s-0.010-0.007-0.016-0.007h-12.571zM24.023 11.428c0-0.619 0.501-1.12 1.12-1.12h1.143c0.619 0 1.12 0.501 1.12 1.12s-0.501 1.12-1.12 1.12h-1.143c-0.619 0-1.12-0.501-1.12-1.12zM24.023 16c0-0.619 0.501-1.12 1.12-1.12h1.143c0.619 0 1.12 0.501 1.12 1.12s-0.501 1.12-1.12 1.12h-1.143c-0.619 0-1.12-0.501-1.12-1.12z"></path>
</symbol>
<symbol id="icon-camper" viewBox="0 0 32 32">
<path d="M1.826 6.060h8.686c0.073 0 0.142-0.028 0.194-0.079l0.834-0.814c0.243-0.237 0.565-0.367 0.908-0.367h13.172c0.613 0 1.183 0.297 1.523 0.795l1.579 2.31c0.224 0.328 0.244 0.747 0.054 1.095s-0.56 0.563-0.964 0.563h-6.789v0.669h3.477c0.922 0 1.751 0.534 2.112 1.361l2.036 4.655 1.783 0.696c0.952 0.372 1.568 1.258 1.568 2.259v4.311c0 0.643-0.536 1.166-1.195 1.166h-2.075c-0.241 1.427-1.515 2.52-3.045 2.52s-2.804-1.092-3.045-2.52h-11.342c-0.241 1.427-1.515 2.52-3.045 2.52s-2.804-1.092-3.045-2.52h-4.145c-0.586 0-1.063-0.465-1.063-1.037v-15.803c0-0.982 0.819-1.781 1.826-1.781zM25.685 26.216c1.146 0 2.078-0.909 2.078-2.027s-0.932-2.027-2.078-2.027c-1.146 0-2.078 0.909-2.078 2.027s0.932 2.027 2.078 2.027zM21.024 23.696h1.615c0.004-0.025 0.009-0.049 0.014-0.073 0.003-0.017 0.006-0.033 0.010-0.050 0.008-0.039 0.017-0.077 0.027-0.115 0.002-0.008 0.004-0.016 0.006-0.024 0.012-0.046 0.025-0.091 0.040-0.136 0.004-0.013 0.009-0.026 0.013-0.039 0.010-0.032 0.021-0.063 0.033-0.094 0.006-0.017 0.013-0.033 0.020-0.050 0.010-0.027 0.021-0.054 0.033-0.081 0.007-0.018 0.015-0.035 0.023-0.052 0.011-0.026 0.023-0.050 0.035-0.076 0.009-0.018 0.017-0.035 0.027-0.053 0.012-0.024 0.025-0.048 0.038-0.072 0.009-0.017 0.019-0.035 0.029-0.052 0.013-0.024 0.027-0.047 0.042-0.070 0.010-0.017 0.020-0.033 0.030-0.050 0.015-0.024 0.031-0.047 0.046-0.070 0.010-0.015 0.021-0.031 0.031-0.046 0.017-0.025 0.036-0.049 0.054-0.074 0.009-0.013 0.019-0.026 0.028-0.039 0.025-0.032 0.050-0.063 0.076-0.094 0.004-0.005 0.007-0.009 0.011-0.014 0.030-0.035 0.061-0.070 0.092-0.104 0.010-0.011 0.020-0.020 0.030-0.031 0.022-0.023 0.044-0.046 0.067-0.069 0.013-0.013 0.026-0.025 0.039-0.037 0.021-0.020 0.042-0.039 0.063-0.059 0.014-0.013 0.029-0.025 0.043-0.038 0.021-0.018 0.042-0.036 0.063-0.054l0.046-0.037c0.021-0.017 0.043-0.034 0.065-0.050 0.016-0.012 0.032-0.024 0.048-0.035 0.022-0.016 0.045-0.032 0.068-0.047 0.016-0.011 0.032-0.022 0.048-0.032 0.024-0.016 0.048-0.031 0.073-0.046 0.016-0.009 0.031-0.019 0.048-0.029 0.027-0.016 0.054-0.031 0.082-0.046 0.014-0.008 0.028-0.016 0.042-0.023 0.039-0.020 0.078-0.040 0.118-0.059 0.003-0.001 0.006-0.003 0.009-0.004 0.043-0.020 0.086-0.039 0.13-0.057 0.014-0.006 0.029-0.011 0.043-0.017 0.030-0.012 0.060-0.024 0.091-0.035 0.017-0.006 0.035-0.012 0.052-0.018 0.028-0.009 0.056-0.019 0.084-0.028 0.019-0.006 0.038-0.011 0.057-0.017 0.027-0.008 0.055-0.016 0.082-0.023 0.020-0.005 0.040-0.010 0.060-0.015 0.027-0.007 0.055-0.013 0.083-0.018 0.020-0.004 0.040-0.009 0.061-0.013 0.028-0.005 0.057-0.010 0.085-0.015 0.020-0.004 0.040-0.007 0.060-0.009 0.029-0.004 0.059-0.008 0.090-0.011 0.019-0.002 0.038-0.005 0.058-0.006 0.033-0.003 0.067-0.006 0.1-0.007 0.017-0.001 0.033-0.003 0.049-0.003 0.050-0.003 0.1-0.004 0.151-0.004s0.101 0.001 0.151 0.004c0.017 0 0.033 0.002 0.049 0.003 0.034 0.002 0.067 0.004 0.1 0.007 0.019 0.002 0.039 0.004 0.058 0.006 0.030 0.004 0.060 0.007 0.090 0.011 0.021 0.003 0.040 0.006 0.061 0.009 0.029 0.004 0.057 0.009 0.085 0.015 0.021 0.004 0.041 0.008 0.061 0.013 0.028 0.006 0.055 0.012 0.083 0.018 0.020 0.005 0.040 0.010 0.060 0.015 0.027 0.007 0.055 0.015 0.082 0.023 0.019 0.006 0.038 0.011 0.057 0.017 0.028 0.009 0.056 0.018 0.084 0.028 0.017 0.006 0.035 0.012 0.052 0.018 0.031 0.011 0.061 0.023 0.091 0.035 0.014 0.006 0.029 0.011 0.043 0.017 0.044 0.018 0.087 0.037 0.13 0.057 0.003 0.002 0.006 0.003 0.009 0.004 0.040 0.019 0.079 0.039 0.118 0.059 0.014 0.007 0.027 0.015 0.042 0.023 0.027 0.015 0.055 0.030 0.082 0.046 0.016 0.009 0.032 0.019 0.048 0.029 0.024 0.015 0.049 0.030 0.073 0.046 0.016 0.011 0.032 0.022 0.048 0.032 0.023 0.016 0.046 0.031 0.068 0.047 0.016 0.011 0.032 0.023 0.048 0.035 0.022 0.016 0.044 0.033 0.065 0.050l0.046 0.037c0.021 0.018 0.042 0.035 0.063 0.054 0.015 0.013 0.029 0.025 0.043 0.038 0.021 0.019 0.042 0.039 0.063 0.059 0.013 0.012 0.026 0.024 0.039 0.037 0.023 0.023 0.045 0.046 0.067 0.069 0.010 0.010 0.020 0.020 0.030 0.031 0.031 0.034 0.062 0.068 0.092 0.104 0.004 0.005 0.008 0.009 0.011 0.014 0.026 0.031 0.051 0.062 0.076 0.094 0.010 0.013 0.019 0.026 0.028 0.039 0.019 0.024 0.037 0.049 0.054 0.074 0.010 0.015 0.021 0.030 0.031 0.046 0.016 0.024 0.031 0.047 0.046 0.070 0.010 0.017 0.020 0.033 0.030 0.050 0.014 0.023 0.028 0.047 0.042 0.070 0.010 0.017 0.019 0.035 0.029 0.052 0.013 0.024 0.026 0.048 0.038 0.072 0.009 0.018 0.018 0.035 0.027 0.053 0.012 0.025 0.023 0.050 0.035 0.076 0.008 0.017 0.016 0.035 0.023 0.052 0.012 0.027 0.022 0.054 0.033 0.081 0.007 0.016 0.013 0.033 0.020 0.050 0.011 0.031 0.022 0.063 0.033 0.094 0.004 0.013 0.009 0.026 0.013 0.039 0.014 0.045 0.027 0.090 0.040 0.136 0.002 0.008 0.004 0.016 0.006 0.024 0.010 0.038 0.019 0.076 0.027 0.115 0.004 0.016 0.006 0.033 0.010 0.050 0.005 0.024 0.010 0.048 0.014 0.073h2.074c0.103 0 0.186-0.082 0.186-0.182v-2.062h-0.787v-0.984h0.787v-1.264c0-0.596-0.366-1.124-0.933-1.345l-1.888-0.737h-7.146v6.574zM21.024 16.138h6.48l-1.818-4.158c-0.203-0.464-0.668-0.763-1.185-0.763h-3.477v4.921zM8.252 26.216c1.146 0 2.078-0.909 2.078-2.027s-0.932-2.027-2.078-2.027c-0.036 0-0.071 0.001-0.107 0.003-0.955 0.047-1.742 0.727-1.929 1.616-0.007 0.033-0.013 0.067-0.019 0.1-0.011 0.067-0.017 0.135-0.021 0.204-0.002 0.035-0.003 0.069-0.003 0.104 0 1.118 0.932 2.027 2.078 2.027zM1.009 20.468h0.787v0.984h-0.787v2.192c0 0.029 0.024 0.052 0.054 0.052h4.144c0.004-0.024 0.009-0.048 0.014-0.072 0.003-0.017 0.006-0.034 0.010-0.051 0.008-0.038 0.017-0.075 0.027-0.112 0.002-0.009 0.004-0.018 0.006-0.026 0.012-0.046 0.025-0.090 0.040-0.135 0.004-0.014 0.009-0.028 0.014-0.041 0.011-0.031 0.021-0.062 0.032-0.093 0.006-0.017 0.013-0.034 0.020-0.051 0.011-0.027 0.021-0.054 0.032-0.080 0.008-0.018 0.016-0.036 0.024-0.054 0.011-0.025 0.023-0.050 0.035-0.074 0.008-0.018 0.018-0.036 0.027-0.054 0.012-0.024 0.025-0.048 0.038-0.072 0.010-0.017 0.019-0.035 0.029-0.052 0.014-0.024 0.027-0.047 0.042-0.070 0.010-0.017 0.020-0.033 0.031-0.050 0.015-0.024 0.030-0.047 0.046-0.070 0.010-0.016 0.021-0.032 0.031-0.046 0.017-0.025 0.035-0.049 0.053-0.073 0.010-0.013 0.019-0.027 0.029-0.040 0.024-0.031 0.049-0.062 0.074-0.092 0.004-0.006 0.008-0.011 0.013-0.016 0.030-0.035 0.061-0.070 0.092-0.104 0.010-0.011 0.020-0.021 0.030-0.032 0.022-0.023 0.044-0.046 0.067-0.068 0.013-0.013 0.026-0.025 0.040-0.037 0.021-0.020 0.041-0.039 0.063-0.058 0.014-0.013 0.029-0.025 0.044-0.038 0.021-0.018 0.042-0.035 0.063-0.053 0.015-0.013 0.031-0.025 0.046-0.037 0.021-0.017 0.043-0.033 0.065-0.050 0.016-0.012 0.032-0.024 0.048-0.035 0.022-0.016 0.045-0.032 0.067-0.047 0.017-0.011 0.033-0.022 0.049-0.033 0.024-0.016 0.048-0.031 0.072-0.045 0.016-0.010 0.032-0.020 0.048-0.029 0.027-0.016 0.054-0.031 0.081-0.046 0.014-0.008 0.028-0.016 0.042-0.023 0.038-0.020 0.077-0.040 0.117-0.058 0.003-0.002 0.006-0.004 0.010-0.005 0.043-0.020 0.086-0.039 0.13-0.057 0.014-0.006 0.029-0.011 0.043-0.017 0.030-0.012 0.060-0.024 0.091-0.035 0.017-0.006 0.035-0.012 0.053-0.018 0.027-0.009 0.055-0.019 0.084-0.028 0.019-0.006 0.038-0.011 0.057-0.017 0.027-0.008 0.055-0.016 0.082-0.023 0.020-0.005 0.040-0.010 0.060-0.015 0.027-0.007 0.055-0.013 0.083-0.018 0.020-0.004 0.040-0.009 0.061-0.013 0.028-0.005 0.056-0.010 0.085-0.015 0.020-0.004 0.040-0.007 0.061-0.009 0.029-0.004 0.059-0.008 0.090-0.011 0.019-0.002 0.038-0.005 0.058-0.006 0.033-0.003 0.067-0.006 0.1-0.007 0.016-0.001 0.033-0.003 0.049-0.003 0.050-0.003 0.1-0.004 0.151-0.004s0.101 0.001 0.151 0.004c0.017 0 0.033 0.002 0.049 0.003 0.033 0.002 0.067 0.004 0.1 0.007 0.019 0.002 0.039 0.004 0.058 0.006 0.030 0.004 0.060 0.007 0.090 0.011 0.021 0.003 0.040 0.006 0.060 0.009 0.029 0.004 0.057 0.009 0.085 0.015 0.021 0.004 0.041 0.008 0.061 0.013 0.028 0.006 0.055 0.012 0.083 0.018 0.020 0.005 0.040 0.010 0.060 0.015 0.027 0.007 0.055 0.015 0.082 0.023 0.019 0.006 0.038 0.011 0.057 0.017 0.028 0.009 0.056 0.018 0.084 0.028 0.018 0.006 0.036 0.012 0.053 0.018 0.031 0.011 0.061 0.023 0.091 0.035 0.014 0.006 0.029 0.011 0.043 0.017 0.044 0.018 0.087 0.037 0.13 0.057 0.004 0.002 0.007 0.003 0.010 0.005 0.040 0.019 0.078 0.038 0.117 0.058 0.014 0.007 0.028 0.015 0.042 0.023 0.027 0.015 0.054 0.030 0.081 0.046 0.016 0.009 0.032 0.019 0.048 0.029 0.024 0.015 0.048 0.030 0.072 0.045 0.016 0.011 0.032 0.022 0.049 0.033 0.023 0.015 0.045 0.031 0.067 0.047 0.016 0.011 0.032 0.023 0.048 0.035 0.022 0.016 0.044 0.033 0.065 0.050 0.016 0.012 0.031 0.025 0.046 0.037 0.021 0.017 0.042 0.035 0.063 0.053 0.015 0.013 0.029 0.025 0.044 0.038 0.021 0.019 0.042 0.039 0.063 0.059 0.013 0.012 0.026 0.024 0.039 0.037 0.023 0.022 0.045 0.046 0.067 0.069 0.010 0.010 0.020 0.020 0.030 0.031 0.031 0.034 0.062 0.068 0.092 0.104 0.004 0.005 0.008 0.010 0.012 0.015 0.025 0.031 0.051 0.062 0.075 0.094 0.010 0.013 0.019 0.026 0.029 0.039 0.018 0.024 0.036 0.049 0.054 0.074 0.010 0.015 0.021 0.031 0.031 0.046 0.016 0.023 0.031 0.046 0.046 0.070 0.010 0.017 0.021 0.033 0.031 0.050 0.014 0.023 0.028 0.047 0.042 0.070 0.010 0.017 0.019 0.035 0.029 0.052 0.013 0.024 0.026 0.048 0.038 0.072 0.009 0.018 0.017 0.035 0.026 0.053 0.012 0.025 0.023 0.050 0.035 0.076 0.008 0.017 0.016 0.035 0.023 0.052 0.012 0.027 0.022 0.054 0.033 0.081 0.006 0.016 0.013 0.033 0.019 0.050 0.012 0.031 0.022 0.063 0.033 0.095 0.004 0.013 0.009 0.026 0.013 0.039 0.014 0.045 0.027 0.091 0.040 0.136 0.002 0.007 0.003 0.015 0.005 0.022 0.010 0.039 0.019 0.078 0.028 0.117 0.004 0.016 0.006 0.032 0.009 0.048 0.005 0.025 0.010 0.049 0.015 0.074h8.717v-14.625c0-0.272 0.226-0.492 0.504-0.492h7.293c0.012 0 0.051 0 0.075-0.044s0.003-0.074-0.004-0.084l-1.578-2.31c-0.153-0.224-0.408-0.357-0.684-0.357h-13.172c-0.073 0-0.142 0.028-0.195 0.079l-0.834 0.814c-0.242 0.237-0.565 0.367-0.908 0.367h-8.686c-0.45 0-0.817 0.357-0.817 0.797v12.627z"></path>
<path d="M14.081 9.838h3.191c0.644 0 1.169 0.511 1.169 1.14v10.532c0 0.272-0.226 0.492-0.504 0.492h-4.52c-0.278 0-0.504-0.22-0.504-0.492v-10.532c-0-0.629 0.524-1.14 1.169-1.14zM13.921 21.019h3.511v-5.787h-3.511v5.787zM13.921 14.248h3.511v-3.269c0-0.086-0.072-0.156-0.16-0.156h-3.191c-0.088 0-0.16 0.070-0.16 0.156v3.269h0zM3.875 9.838h6.17c0.713 0 1.293 0.566 1.293 1.262v2.87c0 0.696-0.58 1.262-1.293 1.262h-6.17c-0.713 0-1.293-0.566-1.293-1.262v-2.87c0-0.696 0.581-1.262 1.294-1.262zM3.59 13.97c0 0.153 0.127 0.278 0.284 0.278h6.17c0.157 0 0.284-0.124 0.284-0.278v-2.87c0-0.153-0.128-0.278-0.284-0.278h-6.17c-0.157 0-0.284 0.124-0.284 0.278v2.87h0z"></path>
</symbol>
<symbol id="icon-transmission" viewBox="0 0 32 32">
<path d="M3.933 3.933c0.725-0.725 1.709-1.133 2.734-1.133s2.009 0.407 2.734 1.133c0.725 0.725 1.133 1.709 1.133 2.734s-0.407 2.009-1.133 2.734c-0.725 0.725-1.709 1.133-2.734 1.133s-2.009-0.407-2.734-1.133c-0.725-0.725-1.133-1.709-1.133-2.734s0.407-2.009 1.133-2.734zM6.667 5.2c-0.389 0-0.762 0.155-1.037 0.43s-0.43 0.648-0.43 1.037c0 0.389 0.155 0.762 0.43 1.037s0.648 0.43 1.037 0.43c0.389 0 0.762-0.154 1.037-0.43s0.43-0.648 0.43-1.037c0-0.389-0.154-0.762-0.43-1.037s-0.648-0.43-1.037-0.43zM21.467 10.667c0-0.663 0.537-1.2 1.2-1.2h2c0.849 0 1.663 0.337 2.263 0.937s0.937 1.414 0.937 2.263c0 0.849-0.337 1.663-0.937 2.263s-1.414 0.937-2.263 0.937h-0.8v1.467c0 0.663-0.537 1.2-1.2 1.2s-1.2-0.537-1.2-1.2v-6.667zM23.867 13.467h0.8c0.212 0 0.416-0.084 0.566-0.234s0.234-0.354 0.234-0.566-0.084-0.416-0.234-0.566c-0.15-0.15-0.353-0.234-0.566-0.234h-0.8v1.6zM21.467 22.667c0-0.663 0.537-1.2 1.2-1.2h1.333c1.025 0 2.009 0.407 2.734 1.132s1.133 1.709 1.133 2.734c0 1.026-0.407 2.009-1.133 2.734s-1.709 1.132-2.734 1.132h-1.333c-0.663 0-1.2-0.537-1.2-1.2v-5.333zM23.867 23.867v2.933h0.133c0.389 0 0.762-0.155 1.037-0.43s0.43-0.648 0.43-1.037c0-0.389-0.155-0.762-0.43-1.037s-0.648-0.43-1.037-0.43h-0.133z"></path>
<path d="M6.667 8.133c0.663 0 1.2 0.537 1.2 1.2v4c0 0.035 0.014 0.069 0.039 0.094s0.059 0.039 0.094 0.039h9.333c0.663 0 1.2 0.537 1.2 1.2s-0.537 1.2-1.2 1.2h-4.133v8.133c0 0.035 0.014 0.069 0.039 0.094s0.059 0.039 0.094 0.039h4c0.663 0 1.2 0.537 1.2 1.2s-0.537 1.2-1.2 1.2h-4c-0.672 0-1.316-0.267-1.791-0.742s-0.742-1.12-0.742-1.791v-8.133h-2.8c-0.672 0-1.316-0.267-1.791-0.742s-0.742-1.119-0.742-1.791v-4c0-0.663 0.537-1.2 1.2-1.2z"></path>
</symbol>
<symbol id="icon-beds" viewBox="0 0 32 32">
<path d="M8.497 4.88l0.003-0 15.003 0c0.958 0.003 1.877 0.385 2.554 1.062s1.060 1.596 1.062 2.554l0 0.003-0 5.844c0.552 0.252 1.060 0.602 1.497 1.039 0.959 0.959 1.499 2.258 1.503 3.614l0 0.003v7c0 0.619-0.502 1.12-1.12 1.12s-1.12-0.501-1.12-1.12v-6.998c-0.003-0.764-0.307-1.495-0.847-2.035s-1.271-0.844-2.035-0.847h-17.996c-0.763 0.003-1.495 0.307-2.035 0.847s-0.844 1.271-0.847 2.035v6.998c0 0.619-0.501 1.12-1.12 1.12s-1.12-0.501-1.12-1.12v-7.003c0.004-1.356 0.544-2.655 1.503-3.614 0.437-0.437 0.945-0.787 1.497-1.039v-5.847c0.003-0.958 0.385-1.877 1.062-2.554s1.596-1.060 2.554-1.062zM24.88 13.88v-5.378c-0.001-0.366-0.147-0.717-0.406-0.976s-0.61-0.405-0.976-0.406h-14.996c-0.366 0.001-0.717 0.148-0.976 0.406s-0.405 0.61-0.406 0.976v5.378h17.76z"></path>
<path d="M8.997 10.88l0.003-0 5.003 0c0.733 0.002 1.439 0.262 1.997 0.728 0.558-0.467 1.264-0.726 1.997-0.728l0.003-0 5.003 0c0.826 0.002 1.617 0.331 2.201 0.915s0.913 1.375 0.915 2.201l0 0.003-0 1c0 0.619-0.501 1.12-1.12 1.12s-1.12-0.501-1.12-1.12v-0.998c-0.001-0.234-0.094-0.457-0.259-0.622s-0.389-0.258-0.622-0.259h-4.996c-0.234 0.001-0.457 0.094-0.622 0.259s-0.258 0.389-0.26 0.622v0.998c0 0.619-0.501 1.12-1.12 1.12s-1.12-0.501-1.12-1.12v-0.998c-0.001-0.234-0.094-0.457-0.259-0.623s-0.389-0.258-0.623-0.259h-4.996c-0.234 0.001-0.457 0.094-0.623 0.259s-0.258 0.389-0.259 0.622v0.998c0 0.619-0.501 1.12-1.12 1.12s-1.12-0.501-1.12-1.12v-1.003c0.002-0.826 0.331-1.617 0.915-2.201s1.375-0.913 2.201-0.915zM4.497 22.88h23.007c0.693 0.002 1.358 0.278 1.848 0.769s0.767 1.155 0.769 1.848l0 0.003v0.5c0 0.619-0.502 1.12-1.12 1.12s-1.12-0.501-1.12-1.12v-0.498c-0-0.101-0.041-0.198-0.112-0.27s-0.168-0.112-0.27-0.113h-22.996c-0.101 0.001-0.198 0.041-0.27 0.113s-0.112 0.168-0.113 0.27v0.498c0 0.619-0.501 1.12-1.12 1.12s-1.12-0.501-1.12-1.12v-0.503c0.002-0.693 0.278-1.358 0.769-1.848s1.155-0.767 1.848-0.769z"></path>
</symbol>
<symbol id="icon-kitchen" viewBox="0 0 32 32">
<path d="M25.806 2.897c0.441 0.189 0.728 0.623 0.728 1.103v24c0 0.663-0.537 1.2-1.2 1.2h-1.333c-0.663 0-1.2-0.537-1.2-1.2v-4c0-0.663 0.537-1.2 1.2-1.2 0.045 0 0.090 0.003 0.133 0.007v-1.607h-5.467c-0.66 0-1.196-0.533-1.2-1.192-0.016-2.47 0.041-5.108 0.975-7.928 0.94-2.838 2.736-5.773 6.064-8.948 0.348-0.331 0.859-0.424 1.301-0.235zM24.133 18.8v-11.798c-1.788 2.099-2.815 4.024-3.414 5.832-0.67 2.023-0.827 3.962-0.851 5.966h4.265zM6.667 4.133c0.663 0 1.2 0.537 1.2 1.2v4c0 0.743 0.295 1.455 0.82 1.98 0.229 0.229 0.493 0.414 0.78 0.55v-6.53c0-0.663 0.537-1.2 1.2-1.2s1.2 0.537 1.2 1.2v6.53c0.287-0.136 0.551-0.321 0.78-0.55 0.525-0.525 0.82-1.237 0.82-1.98v-4c0-0.663 0.537-1.2 1.2-1.2s1.2 0.537 1.2 1.2v4c0 1.379-0.548 2.702-1.523 3.677-0.687 0.687-1.547 1.162-2.477 1.383v13.607c0 0.663-0.537 1.2-1.2 1.2s-1.2-0.537-1.2-1.2v-13.607c-0.93-0.221-1.79-0.696-2.477-1.383-0.975-0.975-1.523-2.298-1.523-3.677v-4c0-0.663 0.537-1.2 1.2-1.2z"></path>
</symbol>
<symbol id="icon-heart" viewBox="0 0 32 32">
<path stroke-linejoin="round" stroke-linecap="round" stroke-miterlimit="4" stroke-width="3.0667" d="M27.787 6.147c-0.681-0.681-1.49-1.222-2.379-1.591s-1.844-0.559-2.807-0.559-1.917 0.19-2.807 0.559c-0.89 0.369-1.699 0.909-2.38 1.591l-1.413 1.413-1.413-1.413c-1.376-1.376-3.241-2.148-5.187-2.148s-3.811 0.773-5.187 2.148c-1.376 1.376-2.148 3.241-2.148 5.187s0.773 3.811 2.148 5.187l11.787 11.787 11.787-11.787c0.681-0.681 1.222-1.49 1.591-2.38s0.559-1.844 0.559-2.807-0.19-1.917-0.559-2.807c-0.369-0.89-0.909-1.699-1.591-2.38z"></path>
</symbol>
<symbol id="icon-shower" viewBox="0 0 32 32">
<path d="M4.626 4.626c0.391-0.391 1.024-0.391 1.414 0l2.72 2.72c1.309-1.002 2.916-1.557 4.582-1.565 1.669-0.008 3.285 0.533 4.605 1.525l1.346-1.346c0.39-0.391 1.024-0.391 1.414 0s0.391 1.024 0 1.414l-1.999 1.999c-0.001 0.001-0.002 0.002-0.002 0.002l-9.331 9.331c-0.001 0.001-0.002 0.002-0.002 0.002l-1.999 1.999c-0.391 0.39-1.024 0.39-1.414 0s-0.391-1.024 0-1.414l1.346-1.346c-0.992-1.32-1.533-2.936-1.525-4.605 0.008-1.666 0.564-3.273 1.566-4.582l-2.72-2.72c-0.391-0.391-0.391-1.024 0-1.414zM8.739 16.514l7.775-7.775c-0.927-0.626-2.027-0.964-3.161-0.958-1.475 0.007-2.888 0.597-3.931 1.64s-1.633 2.456-1.64 3.932c-0.006 1.134 0.333 2.234 0.958 3.161zM21.333 12.333c0.552 0 1 0.448 1 1v0.013c0 0.552-0.448 1-1 1s-1-0.448-1-1v-0.013c0-0.552 0.448-1 1-1zM26.667 13.667c0.552 0 1 0.448 1 1v0.013c0 0.552-0.448 1-1 1s-1-0.448-1-1v-0.013c0-0.552 0.448-1 1-1zM17.333 16.333c0.552 0 1 0.448 1 1v0.013c0 0.552-0.448 1-1 1s-1-0.448-1-1v-0.013c0-0.552 0.448-1 1-1zM22.667 17.667c0.552 0 1 0.448 1 1v0.013c0 0.552-0.448 1-1 1s-1-0.448-1-1v-0.013c0-0.552 0.448-1 1-1zM13.333 20.333c0.552 0 1 0.448 1 1v0.013c0 0.552-0.448 1-1 1s-1-0.448-1-1v-0.013c0-0.552 0.448-1 1-1zM18.667 21.667c0.552 0 1 0.448 1 1v0.013c0 0.552-0.448 1-1 1s-1-0.448-1-1v-0.013c0-0.552 0.448-1 1-1zM14.667 25.667c0.552 0 1 0.448 1 1v0.013c0 0.552-0.448 1-1 1s-1-0.448-1-1v-0.013c0-0.552 0.448-1 1-1z"></path>
</symbol>
<symbol id="icon-Route" viewBox="0 0 32 32">
<path d="M6.667 4c-1.473 0-2.667 1.194-2.667 2.667s1.194 2.667 2.667 2.667c1.473 0 2.667-1.194 2.667-2.667s-1.194-2.667-2.667-2.667zM1.333 6.667c0-2.946 2.388-5.333 5.333-5.333s5.333 2.388 5.333 5.333c0 2.946-2.388 5.333-5.333 5.333s-5.333-2.388-5.333-5.333z"></path>
<path d="M25.333 22.667c-1.473 0-2.667 1.194-2.667 2.667s1.194 2.667 2.667 2.667c1.473 0 2.667-1.194 2.667-2.667s-1.194-2.667-2.667-2.667zM20 25.333c0-2.945 2.388-5.333 5.333-5.333s5.333 2.388 5.333 5.333c0 2.946-2.388 5.333-5.333 5.333s-5.333-2.388-5.333-5.333z"></path>
<path d="M13.333 6.667c0-0.736 0.597-1.333 1.333-1.333h8.4c4.13 0 5.62 5.404 1.987 7.429l-15.473 8.804c-1.16 0.644-0.782 2.434 0.686 2.434h7.067c0.736 0 1.333 0.597 1.333 1.333s-0.597 1.333-1.333 1.333h-7.067c-4.13 0-5.619-5.404-1.987-7.429l15.473-8.804c1.16-0.644 0.782-2.434-0.686-2.434h-8.4c-0.736 0-1.333-0.597-1.333-1.333z"></path>
</symbol>
<symbol id="icon-peoples" viewBox="0 0 32 32">
<path d="M9.067 24.133h-4.4c-0.267 0-0.4-0.133-0.533-0.267s-0.267-0.4-0.133-0.667c0.8-2.267 2.8-3.6 5.067-3.6 2.8 0 5.067-2.4 5.067-5.2s-2.267-5.467-5.067-5.467c-2.8 0-5.067 2.4-5.067 5.333 0 1.333 0.533 2.667 1.333 3.6-1.733 0.933-3.067 2.4-3.867 4.4-0.267 0.933-0.133 2.133 0.533 3.067s1.6 1.467 2.667 1.467h4.4c0.8 0 1.333-0.533 1.333-1.333s-0.533-1.333-1.333-1.333zM6.667 14.267c0-1.467 1.067-2.533 2.4-2.533s2.4 1.2 2.4 2.533c0 1.467-1.067 2.533-2.4 2.533s-2.4-1.2-2.4-2.533z"></path>
<path d="M30.533 21.467c-0.933-2.533-2.8-4.4-4.933-5.467 1.2-1.067 1.867-2.667 1.867-4.533 0-3.467-2.667-6.267-5.867-6.267s-5.867 2.8-5.867 6.267c0 1.733 0.667 3.333 1.867 4.533-2.133 1.067-4 2.933-4.933 5.467-0.667 1.2-0.4 2.533 0.267 3.6s1.867 1.6 3.067 1.6h11.067c1.2 0 2.4-0.667 3.067-1.6 0.8-1.067 0.933-2.4 0.4-3.6zM18.267 11.6c0-2 1.467-3.6 3.2-3.6s3.2 1.6 3.2 3.6-1.467 3.6-3.2 3.6c-1.733 0-3.2-1.733-3.2-3.6zM27.867 23.6c-0.133 0.133-0.4 0.533-0.8 0.533h-11.067c-0.533 0-0.8-0.4-0.8-0.533-0.133-0.133-0.4-0.667-0.133-1.2 1.067-2.8 3.733-4.667 6.533-4.667s5.467 1.867 6.533 4.667c0.133 0.533-0.133 1.067-0.267 1.2z"></path>
</symbol>
<symbol id="icon-freezer" viewBox="0 0 32 32">
<path d="M8.607 4.040c-0.53 0-0.96 0.43-0.96 0.96v20.387c0 0.53 0.43 0.96 0.96 0.96h14.793c0.53 0 0.96-0.43 0.96-0.96v-20.387c0-0.53-0.43-0.96-0.96-0.96h-14.793zM5.567 5c0-1.679 1.361-3.040 3.040-3.040h14.793c1.679 0 3.040 1.361 3.040 3.040v20.387c0 1.679-1.361 3.040-3.040 3.040h-14.793c-1.679 0-3.040-1.361-3.040-3.040v-20.387z"></path>
<path d="M10.313 5.487c0.574 0 1.040 0.466 1.040 1.040v4.040c0 0.574-0.466 1.040-1.040 1.040s-1.040-0.466-1.040-1.040v-4.040c0-0.574 0.466-1.040 1.040-1.040zM5.567 13.127c0-0.574 0.466-1.040 1.040-1.040h18.787c0.574 0 1.040 0.466 1.040 1.040s-0.466 1.040-1.040 1.040h-18.787c-0.574 0-1.040-0.466-1.040-1.040zM10.313 14.36c0.574 0 1.040 0.466 1.040 1.040v4.040c0 0.574-0.466 1.040-1.040 1.040s-1.040-0.466-1.040-1.040v-4.040c0-0.574 0.466-1.040 1.040-1.040zM8.427 26.347c0.574 0 1.040 0.466 1.040 1.040v0.573h1.387v-0.573c0-0.574 0.466-1.040 1.040-1.040s1.040 0.466 1.040 1.040v0.7c0 0.518-0.206 1.015-0.572 1.381s-0.863 0.572-1.381 0.572h-1.654c-0.516-0.004-1.009-0.211-1.372-0.577s-0.567-0.86-0.567-1.376c0 0 0 0 0 0v-0.7c0-0.574 0.466-1.040 1.040-1.040zM20.1 26.347c0.574 0 1.040 0.466 1.040 1.040v0.573h1.4v-0.573c0-0.574 0.466-1.040 1.040-1.040s1.040 0.466 1.040 1.040v0.7c0 0.518-0.206 1.015-0.572 1.381s-0.863 0.572-1.381 0.572h-1.653c-0.518 0-1.015-0.206-1.381-0.572s-0.572-0.863-0.572-1.381v-0.7c0-0.574 0.466-1.040 1.040-1.040z"></path>
</symbol>
<symbol id="icon-engine" viewBox="0 0 32 32">
<path d="M26.36 9.64l0.013-0.013-4.96-4.96-1.413 1.413 2.813 2.813c-1.253 0.48-2.147 1.68-2.147 3.107 0 0.438 0.086 0.871 0.254 1.276s0.413 0.772 0.723 1.081c0.625 0.625 1.473 0.976 2.357 0.976 0.48 0 0.92-0.107 1.333-0.28v9.613c0 0.354-0.14 0.693-0.391 0.943s-0.589 0.391-0.943 0.391c-0.354 0-0.693-0.14-0.943-0.391s-0.391-0.589-0.391-0.943v-6c0-0.707-0.281-1.386-0.781-1.886s-1.178-0.781-1.886-0.781h-1.333v-9.333c0-0.707-0.281-1.386-0.781-1.886s-1.178-0.781-1.886-0.781h-8c-0.707 0-1.386 0.281-1.886 0.781s-0.781 1.178-0.781 1.886v21.333h13.333v-10h2v6.667c0 0.884 0.351 1.732 0.976 2.357s1.473 0.976 2.357 0.976c0.438 0 0.871-0.086 1.276-0.254s0.772-0.413 1.081-0.723c0.309-0.309 0.555-0.677 0.723-1.081s0.254-0.838 0.254-1.276v-12.667c0-0.92-0.373-1.76-0.973-2.36zM16 18v7.333h-8v-9.333h8v2zM16 13.333h-8v-6.667h8v6.667zM24 13.333c-0.354 0-0.693-0.14-0.943-0.39s-0.391-0.589-0.391-0.943 0.14-0.693 0.391-0.943c0.25-0.25 0.589-0.39 0.943-0.39s0.693 0.14 0.943 0.39c0.25 0.25 0.391 0.589 0.391 0.943s-0.14 0.693-0.391 0.943c-0.25 0.25-0.589 0.39-0.943 0.39z"></path>
</symbol>
<symbol id="icon-tv" viewBox="0 0 32 32">
<path d="M8 8.9c-1.719 0-3.1 1.381-3.1 3.1v10c0 1.719 1.381 3.1 3.1 3.1h16c1.719 0 3.1-1.381 3.1-3.1v-10c0-1.719-1.381-3.1-3.1-3.1h-16zM3.1 12c0-2.713 2.187-4.9 4.9-4.9h16c2.713 0 4.9 2.187 4.9 4.9v10c0 2.713-2.187 4.9-4.9 4.9h-16c-2.713 0-4.9-2.187-4.9-4.9v-10z"></path>
<path d="M11.1 30c0-0.497 0.403-0.9 0.9-0.9h8c0.497 0 0.9 0.403 0.9 0.9s-0.403 0.9-0.9 0.9h-8c-0.497 0-0.9-0.403-0.9-0.9z"></path>
<path d="M22.637 1.364c0.352 0.351 0.352 0.921 0 1.273l-6 6c-0.352 0.351-0.921 0.351-1.273 0s-0.351-0.921 0-1.273l6-6c0.352-0.351 0.921-0.351 1.273 0z"></path>
<path d="M9.364 1.364c0.351-0.351 0.921-0.351 1.273 0l6 6c0.352 0.351 0.352 0.921 0 1.273s-0.921 0.351-1.273 0l-6-6c-0.351-0.351-0.351-0.921 0-1.273z"></path>
</symbol>
<symbol id="icon-star" viewBox="0 0 32 32">
<path fill="#ffc531" style="fill: var(--color1, #ffc531); stroke: var(--color1, #ffc531)" stroke="#ffc531" stroke-linejoin="miter" stroke-linecap="butt" stroke-miterlimit="4" stroke-width="2.4" d="M12.4 9.394l3.6-6.822 3.6 6.822c0.318 0.603 0.899 1.025 1.571 1.141l7.601 1.315-5.376 5.532c-0.475 0.489-0.697 1.171-0.6 1.846l1.098 7.635-6.922-3.404c-0.612-0.301-1.329-0.301-1.941 0l-6.922 3.404 1.098-7.635c0.097-0.675-0.125-1.357-0.6-1.846l-5.376-5.532 7.601-1.315c0.672-0.116 1.252-0.538 1.571-1.141zM29.035 11.579v0zM7.767 27.031c0 0 0 0 0 0h-0z"></path>
</symbol>
<symbol id="icon-star-2" viewBox="0 0 32 32">
<path fill="#F2F4F7" style="fill: var(--color1, #F2F4F7); stroke: var(--color1, #F2F4F7)" stroke="#F2F4F7" stroke-linejoin="miter" stroke-linecap="butt" stroke-miterlimit="4" stroke-width="2.4" d="M12.4 9.394l3.6-6.822 3.6 6.822c0.318 0.603 0.899 1.025 1.571 1.141l7.601 1.315-5.376 5.532c-0.475 0.489-0.697 1.171-0.6 1.846l1.098 7.635-6.922-3.404c-0.612-0.301-1.329-0.301-1.941 0l-6.922 3.404 1.098-7.635c0.097-0.675-0.125-1.357-0.6-1.846l-5.376-5.532 7.601-1.315c0.672-0.116 1.252-0.538 1.571-1.141zM29.035 11.579v0zM7.767 27.031c0 0 0 0 0 0h-0z"></path>
</symbol>
<symbol id="icon-close" viewBox="0 0 32 32">
<path d="M25.061 6.939c0.586 0.586 0.586 1.536 0 2.121l-16 16c-0.586 0.586-1.536 0.586-2.121 0s-0.586-1.536 0-2.121l16-16c0.586-0.586 1.536-0.586 2.121 0z"></path>
<path d="M6.939 6.939c0.586-0.586 1.536-0.586 2.121 0l16 16c0.586 0.586 0.586 1.536 0 2.121s-1.536 0.586-2.121 0l-16-16c-0.586-0.586-0.586-1.536 0-2.121z"></path>
</symbol>
</defs>
</svg>
